<?xml version="1.0" standalone="no"?>
<!DOCTYPE svg PUBLIC "-//W3C//DTD SVG 20010904//EN"
 "http://www.w3.org/TR/2001/REC-SVG-20010904/DTD/svg10.dtd">
<svg version="1.0" xmlns="http://www.w3.org/2000/svg"
 width="16.000000pt" height="16.000000pt" viewBox="0 0 16.000000 16.000000"
 preserveAspectRatio="xMidYMid meet">
<metadata>
Created by potrace 1.11, written by Peter Selinger 2001-2013
</metadata>
<g transform="translate(0.000000,16.000000) scale(0.002952,-0.002952)"
fill="#000000" stroke="none">
<path d="M2708 5375 c-2 -1 -59 -5 -128 -8 -123 -6 -195 -13 -236 -22 -12 -3
-39 -7 -60 -11 -21 -3 -90 -19 -151 -35 -799 -205 -1437 -849 -1639 -1654 -9
-33 -18 -71 -20 -85 -2 -14 -9 -47 -14 -75 -38 -202 -44 -536 -14 -712 46
-271 102 -456 198 -658 167 -351 423 -655 750 -890 l28 -20 0 -518 1 -517 27
-43 c52 -83 -48 -77 1266 -77 1147 0 1168 0 1209 20 26 13 49 34 63 59 22 38
22 43 22 562 l0 524 93 70 c122 92 336 307 424 425 115 156 203 305 278 475
62 140 142 417 160 555 3 25 10 77 15 115 9 72 6 455 -4 513 -3 17 -8 44 -10
60 -4 26 -21 124 -30 167 -60 293 -238 662 -444 919 -84 105 -255 276 -362
362 -235 188 -517 332 -807 413 -96 26 -300 68 -343 69 -8 0 -53 3 -100 7
-138 10 -170 12 -172 10z m232 -309 c14 -2 43 -7 65 -10 706 -101 1337 -622
1574 -1300 81 -230 114 -423 114 -666 0 -438 -135 -843 -399 -1196 -94 -126
-288 -315 -424 -413 -63 -46 -124 -97 -135 -114 -19 -31 -20 -49 -20 -524 0
-271 -2 -494 -5 -494 -18 -4 -463 -3 -468 1 -4 3 -7 134 -8 292 0 274 -1 289
-20 315 -68 91 -185 96 -248 10 -20 -27 -21 -45 -26 -325 l-5 -297 -240 0
-240 0 0 285 c-1 280 -1 286 -24 327 -53 93 -189 97 -248 6 -16 -24 -19 -62
-23 -323 l-5 -295 -217 0 c-139 0 -218 3 -219 10 0 5 -1 228 -2 495 -2 549 3
512 -86 572 -502 339 -802 809 -892 1398 -14 94 -18 387 -6 491 24 222 93 452
199 664 127 256 294 465 523 654 206 170 443 295 705 370 58 17 119 32 135 35
17 3 55 10 85 16 30 6 89 13 130 17 41 3 76 7 78 8 5 5 325 -3 352 -9z"/>
<path d="M1294 3595 c-175 -38 -322 -175 -376 -350 -16 -50 -20 -168 -9 -231
6 -32 27 -92 46 -132 31 -66 58 -96 337 -376 252 -252 311 -306 343 -315 59
-16 104 -13 149 9 51 24 600 573 645 645 91 143 96 344 13 499 -37 71 -145
176 -212 208 -82 39 -122 49 -204 53 -94 5 -182 -16 -264 -61 -63 -34 -64 -34
-90 -16 -98 67 -253 95 -378 67z m191 -304 c23 -10 60 -41 84 -70 49 -58 64
-68 114 -76 50 -8 114 25 155 80 76 101 215 113 305 27 40 -38 56 -73 61 -131
7 -89 -17 -122 -272 -375 l-231 -229 -236 236 c-248 249 -268 275 -267 358 1
145 154 241 287 180z"/>
<path d="M3273 3595 c-273 -60 -439 -312 -387 -586 26 -136 48 -166 373 -493
193 -194 310 -305 336 -317 52 -24 116 -24 163 0 37 19 560 532 621 610 66 83
102 200 96 316 -5 134 -52 239 -147 336 -157 160 -406 191 -607 76 l-44 -25
-51 28 c-109 60 -238 81 -353 55z m212 -315 c20 -12 47 -40 61 -61 27 -44 68
-69 122 -73 52 -5 79 10 152 85 57 59 71 68 113 74 66 10 115 0 161 -32 79
-56 109 -169 66 -252 -10 -21 -124 -143 -251 -270 l-233 -232 -228 228 c-126
125 -239 244 -251 263 -31 49 -30 140 1 195 23 40 75 83 116 97 39 13 134 1
171 -22z"/>
<path d="M2637 2176 c-93 -34 -100 -54 -100 -316 0 -239 4 -258 65 -302 46
-32 121 -32 167 1 56 41 63 70 63 301 1 176 -2 212 -17 243 -30 65 -110 97
-178 73z"/>
</g>
</svg>
